# xmcd
#
# Track frame offsets:
#	150
#	20590
#	37550
#
# Disc length: 718 seconds
#
# Revision: 0
# Processed by: cddbd v1.5.1PL2 Copyright (c) Steve Scherf et al.
# Submitted via: dBpowerAMP V4.0
#
DISCID=1402cc03
DTITLE=Delbert McClinton - One Of The Fortunate Few
DYEAR=1997
DGENRE=Country
TTITLE0=Somebody To Love You
TTITLE1=Sending Me Angels
TTITLE2=Leap Of Faith
EXTD=
EXTT0=
EXTT1=
EXTT2=
PLAYORDER=
